# xmcd
#
# Track frame offsets:
#	183
#	11733
#	23675
#	34883
#	47063
#	57543
#	69363
#	86895
#	97323
#	111553
#	123945
#	140905
#	155130
#	168860
#	182493
#	194663
#	204548
#	214383
#	226823
#	237730
#	247430
#	256065
#
# Disc length: 3564 seconds
#
# Revision: 0
# Processed by: cddbd v1.5.2PL0 Copyright (c) Steve Scherf et al.
# Submitted via: audiograbber 1.83.01
#
DISCID=580dea16
DTITLE=Various Artist - COUNTRY LADIES - COUNTRY GENTS - COUNTRY STYLE DANCIN'  CD 4
DYEAR=1900
DGENRE=Country
TTITLE0=SONJA HERHOLDT - JANTJIE ( KOM HUISTOE)
TTITLE1=TAMMY WYNETTE - THERE GOES MY EVERYTHING
TTITLE2=CARIKE KEUZENKAMP - DAAR DOER IN DIE BOSVELD
TTITLE3=CONNIE FRANCIS - EVERYBODY'S SOMEBODY'S FOOL
TTITLE4=SALLY VAUGHN - PLEASE HELP ME I'M FALLING
TTITLE5=LORETTA LYNN - SWEET DREAMS
TTITLE6=CRYSTAL GALE - SOMEDAY SOON
TTITLE7=PATTI PAGE - I WALK THE LINE
TTITLE8=KOOS DU PLESSIS - SPROKIE VIR 'N STADSKIND
TTITLE9=WILLIE NELSON - CRAZY ARMS
TTITLE10=BLES BRIDGES - KATHLEEN
TTITLE11=CHARLEY PRIDE - A SHOULDER TO CRY ON
TTITLE12=SIAS REINECKE - SPEEL 'N LIED VAN DIE SEE
TTITLE13=GLEN CAMPBELL - MARY IN THE MORNING
TTITLE14=ROCKING HORSE - DOWN SOUTH IN NEW ORLEANS
TTITLE15=GROEP TWEE - DIE OU KRAALLIEDJIE
TTITLE16=FLOYD CRAMER - SUGARFOOT RAG
TTITLE17=BRENDA LEE - JAMBALAYA
TTITLE18=SHINNERY - LONESOME TRAVELLER
TTITLE19=DANNY DAVIS and THE NASHVILLE BRASS - ALABAMA JUBILEE
TTITLE20=ROGER MILLER - ENGLAND SWING
TTITLE21=LES PAUL - HIP BILLY BOOGIE
EXTD=
EXTT0=
EXTT1=
EXTT2=
EXTT3=
EXTT4=
EXTT5=
EXTT6=
EXTT7=
EXTT8=
EXTT9=
EXTT10=
EXTT11=
EXTT12=
EXTT13=
EXTT14=
EXTT15=
EXTT16=
EXTT17=
EXTT18=
EXTT19=
EXTT20=
EXTT21=
PLAYORDER=
